<svg xmlns="http://www.w3.org/2000/svg" version="1.1" width="800px" height="800px" xlink="http://www.w3.org/1999/xlink"
     style="overflow:hidden!important;">
  <g id="svga-group-wrapper" transform="scale(4 4)">
    <g id="svga-group-backs-single"></g>
    <g id="svga-group-subwrapper" transform="translate(0 2.0000001999999997)">
      <g id="svga-group-hair-back">
        <path id="SvgjsPath4082" d="M100.5,100.5h-1v-1h1V100.5z" fill="#2a232b" stroke-width="none" opacity="1"></path>
      </g>
      <g id="svga-group-humanbody-single">
        <path id="SvgjsPath2890"
              d="M195.417 199.778c-2.196-4.746-8.195-11.779-14.86-13.722 -8.239-2.403-26.837-5.308-33.733-6.923 -5.528-1.296-16.662-11.294-20.564-14.65 -0.7-0.6-1.273-1.839-1.287-2.76 -0.139-10.864 4.195-39.724 4.195-39.724H100 70.833c0 0 4.334 28.859 4.193 39.724 -0.011 0.921-0.587 2.16-1.285 2.76 -3.902 3.356-15.036 13.354-20.564 14.65 -6.897 1.615-25.495 4.619-33.733 7.022 -6.667 1.942-12.664 8.876-14.86 13.622 -3.708 8.008-4.584 22.5-4.584 35h100 100C200 222.278 199.123 207.786 195.417 199.778z"
              fill="#f0c7b1" stroke-width="none" opacity="1" stroke="none"></path>
        <path id="SvgjsPath2891"
              d="M159.156 184.058c24.342 3.542 34.586 8.708 37.794 50.721H200c0-12.5-0.877-26.992-4.583-35 -2.196-4.746-8.195-11.779-14.86-13.722 -8.239-2.403-26.837-5.308-33.733-6.923 -5.528-1.296-18.242-12.069-21.643-16.35 3.36 4.704 12.791 15.605 21.054 18.46C150.188 182.61 153.48 183.232 159.156 184.058zM53.766 181.244c8.263-2.854 17.693-13.756 21.054-18.46 -3.4 4.28-16.114 15.054-21.643 16.35 -6.896 1.615-25.494 4.619-33.733 7.022 -6.665 1.942-12.664 8.876-14.86 13.622 -3.706 8.008-4.583 22.5-4.583 35h3.05c3.188-41.744 13.475-47.183 37.794-50.721C46.52 183.232 49.813 182.61 53.766 181.244z"
              fill="#ffe4d6" stroke-width="none" opacity="1" stroke="none"></path>
        <path id="SvgjsPath2892"
              d="M95.646 197.62c0 0-5.074-1.609-7.083-2.379 -10.449-4.009-44.395-6.607-44.395-6.607s35.754 1.419 43.644 2.779c-0.458-4.767-3.017-20.004-3.017-20.004s5.149 16.815 6.409 21.057C91.878 194.734 95.646 197.62 95.646 197.62zM106.445 196.278c-0.089 0.073-0.191 0.168-0.302 0.268C106.256 196.461 106.358 196.372 106.445 196.278zM95.646 197.62c0 0 2.893 2.992 4.347 3.03 1.91 0.051 4.828-2.899 6.151-4.104 -1.265 0.957-4.159 1.391-5.31 1.436C99.504 198.033 95.646 197.62 95.646 197.62zM116.664 190.101c-1.545 0.248-4.386 0.789-4.386 0.789l2.287-14.89c-0.646 3.071-4.474 16.211-8.12 20.278 1.91-1.616 6.158-2.391 8.324-2.704 10.236-1.484 10.232-1.483 41.062-4.94C155.831 188.634 126.76 188.479 116.664 190.101z"
              fill="#e1ac8f" stroke-width="none" opacity="1" stroke="none"></path>
        <path id="SvgjsPath2893"
              d="M195.417 199.778c-2.196-4.746-8.195-11.779-14.86-13.722 -8.239-2.403-26.837-5.308-33.733-6.923 -5.528-1.296-16.662-11.294-20.564-14.65 -0.7-0.6-1.273-1.839-1.287-2.76 -0.139-10.864 4.195-39.724 4.195-39.724H100 70.833c0 0 4.334 28.859 4.193 39.724 -0.011 0.921-0.587 2.16-1.285 2.76 -3.902 3.356-15.036 13.354-20.564 14.65 -6.897 1.615-25.495 4.619-33.733 7.022 -6.667 1.942-12.664 8.876-14.86 13.622 -3.708 8.008-4.584 22.5-4.584 35h100 100C200 222.278 199.123 207.786 195.417 199.778z"
              fill="none" stroke="#c27b55" stroke-width="1.5" opacity="1"></path>
      </g>
      <g id="svga-group-chinshadow-single">
        <path id="SvgjsPath4115"
              d="M75.464 163.188c5.276 4.256 10.716 8.678 24.538 8.678 13.815 0 19.256-4.418 24.531-8.672 -0.188-0.49-0.305-0.997-0.312-1.461 -0.088-6.889 1.573-20.711 2.835-30.131 -15.695-2.201-38.418-2.201-54.113 0 1.261 9.421 2.922 23.242 2.833 30.13C75.771 162.188 75.654 162.695 75.464 163.188z"
              fill="url(#SvgjsLinearGradient4116)" opacity="1"></path>
      </g>
      <g id="svga-group-clothes-single">
        <path id="SvgjsPath4212"
              d="M111.806 235.888c-19.135 0-41.455-0.074-68.233-0.229l-23.679-0.128c-14.298-0.078-15.141-0.094-16.887-0.094l-4.899 0.007c-4.571-41.875 14.41-52.87 43.762-56.708 7.789-1.097 15.449-3.097 21.459-6.972 16.327 22.243 64.811 17.562 73.103-0.629 1.39 0.53 2.539 1.215 3.977 1.734 4.666 3.433 11.072 5.836 17.628 6.199 26.008 1.441 44.419 12.996 44.057 54.64 0.003 0.165 0.004 1.175-0.013 1.49 -12.513 0-17.206 0.121-27.034 0.262 -13.331 0.19-29.923 0.427-63.229 0.427C111.813 235.888 111.81 235.888 111.806 235.888z"
              fill="#f2f2f2" stroke-width="none" opacity="1" stroke="none"></path>
        <path id="SvgjsPath4213"
              d="M201.055 234.64c-0.41-7.385-4.064-28.058-10.36-37.541 -12.482-18.805-42.26-12.206-49.132-19.693 -4.986 10.159-24.975 16.595-31.594 17.54 19.181-6.36 27.237-10.959 30.42-21.87 6.405 8.33 41.074 1.971 54.717 24.331C199.101 203.954 202.9 224.793 201.055 234.64zM55.811 177.628c1.357-0.315 2.034-1.249 3.381-1.614l-1.426-1.891c-9.049 7.052-42.909 2.645-54.519 24.036 -3.659 6.741-6.127 22.788-4.192 36.439 0.537-8.384 0.799-26.314 7.095-35.798 11.324-17.06 31.974-12.553 47.619-19.775 6.983 8.6 17.888 12.828 28.984 14.577C68.832 189.971 60.85 183.84 55.811 177.628z"
              fill="#ffffff" stroke-width="none" opacity="1" stroke="none"></path>
        <path id="SvgjsPath4214"
              d="M135.31 173.244c-5.532 11.514-47.35 24.923-70.93 0.879 -1.466 0.622-5.852 2.112-5.852 2.112 17.176 23.386 67.511 23.534 80.909-0.114C139.378 176.098 136.672 173.936 135.31 173.244z"
              fill="#e3cccc" stroke-width="none" opacity="1" stroke="none"></path>
        <path id="SvgjsPath4215"
              d="M136.38 171.002c-9.413 18.822-58.397 21.485-73.012 0.632 -5.337 1.578-10.469 4.941-15.636 5.782C16.812 182.021-6.046 184.335-2 235.552c9.94 0-6.611-0.065 45.571 0.215 123.59 0.71 119.562-0.461 158.606-0.461 0.029-0.14 0.015-1.452 0.021-1.596 2.096-56.436-30.852-53.104-53.12-56.995 -3.144-0.718-6.066-2.773-8.635-3.945C139.024 172.121 137.818 171.538 136.38 171.002zM63.014 172.265c12.974 23.392 64.219 18.699 74.113 0.101 1.2 0.504 1.507 0.704 2.898 1.197 -10.248 21.489-60.942 28.337-81.677 1.163C58.494 174.685 61.552 172.813 63.014 172.265zM-0.845 234.778c-2.421-26.431 1.797-48.043 32.78-53.345 10.276-1.896 16.557-1.962 25.384-5.794 16.763 27.405 72.098 23.158 83.598-1.305 1.652 1.409 4.228 3.03 7.405 3.785 18.098 4.299 54.838-0.894 52.898 56.658C147.163 234.075 102.355 232.433-0.845 234.778z"
              fill="#c48989" stroke-width="none" opacity="1" stroke="none"></path>
      </g>
      <g id="svga-group-head">
        <g id="svga-group-ears-left">
          <path id="SvgjsPath4103"
                d="M45.671 84.344c-1.485-2.462-6.327-9.199-10.031-8.254 -3.012 0.772-2.973 4.971-3.206 7.455 -0.34 3.644-0.464 9.992 0.525 12.568 0.951 2.473 3.96 7.252 5.828 9.075 2.299 2.235 5.97 9.358 6.422 10.097 0.711 1.168 2.137 2.84 4.325 2.708 3.071-0.185 5.724-3.087 5.965-4.485C56.8 105.918 49.536 90.75 45.671 84.344z"
                fill="#f0c7b1" stroke="#c27b55" stroke-width="1.5" opacity="1"></path>
          <path id="SvgjsPath4104"
                d="M44.2 99.341c-0.143-0.563 0.007-1.513 0.154-2.429 0.133-0.835 0.258-1.624 0.182-2.182 -0.289-2.09-1.915-6.06-2.976-8.212 -1.223-2.476-3.199-5.595-5.679-6.399 -1.024-0.333-1.699 0.065-2.089 0.468 -0.288 0.296-0.353 0.645-0.259 0.687 0.095 0.041 0.307-0.248 0.617-0.519 0.254-0.222-0.508-0.04 0 0 -0.205 1.04-0.865 6.302-0.41 10.143 0.358 3.022 1.05 5.279 1.263 5.617 0.031 0.356 0.083 0.705 0.16 1.043 1.002 4.41 7.518 10.177 9.034 11.82 0.28 0.303 0.574 0.483 0.646 0.409s-0.101-0.373-0.379-0.678c-1.498-1.632-7.971-7.381-8.939-11.635 -1.027-4.514 3.912-11.207 4.699-12.623 0.401 0.665 0.742 1.303 1.004 1.835 0.207 0.417 0.434 0.906 0.67 1.435 -0.463 0.738-5.118 6.127-3.934 10.441 0.438 1.591 3.822 3.642 5.131 4.203 0.72 0.31 0.99 0.772 1.304 1.306 0.364 0.624 0.033 2.229 1.23 2.739 0.244 0.104 0.464 0.146 0.659 0.146 0.338 0 0.594-0.13 0.783-0.284 0.02 0.271 0.019 0.619 0.009 0.941 -0.012 0.418 0.047 0.609 0.148 0.617 0.103 0.009 0.21-0.174 0.223-0.587 0.017-0.51 0.014-1.141-0.077-1.444 -0.269-0.889-1.088-1.894-1.957-2.957C44.563 102.197 44.422 100.213 44.2 99.341zM34.969 95.432c-2.348-6.923 1.283-13.229 1.81-14.179 1.012 0.399 2.562 2.193 3.221 3.235C39.52 85.321 35.067 90.775 34.969 95.432zM45.772 106.464c-1.084-0.462-0.706-1.984-1.056-2.584 -0.318-0.542-0.646-1.102-1.479-1.46 -0.18-0.078-0.379-0.196-0.583-0.332 -2.682-6.075 0.293-8.73 1.039-9.273 0.229 0.742 0.399 1.423 0.476 1.97 0.068 0.5-0.059 1.298-0.181 2.068 -0.153 0.955-0.31 1.944-0.147 2.584 0.244 0.953 0.411 2.97 1.291 4.048 0.781 0.956 1.583 1.942 1.857 2.746C46.871 106.391 46.5 106.775 45.772 106.464z"
                fill="#c27b55" stroke-width="none" opacity="1"></path>
        </g>
        <g id="svga-group-ears-right">
          <path id="SvgjsPath4105"
                d="M154.066 84.344c1.486-2.462 6.328-9.199 10.031-8.254 3.012 0.772 2.973 4.971 3.207 7.455 0.34 3.644 0.463 9.992-0.525 12.568 -0.951 2.473-3.961 7.252-5.828 9.075 -2.299 2.235-5.971 9.358-6.422 10.097 -0.711 1.168-2.137 2.84-4.326 2.708 -3.07-0.185-5.723-3.087-5.965-4.485C142.938 105.918 150.203 90.75 154.066 84.344z"
                fill="#f0c7b1" stroke="#c27b55" stroke-width="1.5" opacity="1"></path>
          <path id="SvgjsPath4106"
                d="M154.322 103.243c-0.869 1.063-1.688 2.068-1.957 2.957 -0.092 0.304-0.094 0.935-0.078 1.444 0.014 0.413 0.121 0.596 0.225 0.587 0.102-0.008 0.16-0.199 0.148-0.617 -0.01-0.322-0.012-0.67 0.008-0.941 0.189 0.154 0.445 0.284 0.783 0.284 0.195 0 0.416-0.042 0.66-0.146 1.195-0.511 0.865-2.116 1.229-2.739 0.314-0.534 0.584-0.997 1.305-1.306 1.309-0.561 4.693-2.611 5.131-4.203 1.184-4.314-3.471-9.704-3.934-10.441 0.234-0.529 0.463-1.018 0.668-1.435 0.264-0.532 0.604-1.171 1.006-1.835 0.787 1.416 5.725 8.108 4.699 12.623 -0.969 4.254-7.441 10.003-8.939 11.635 -0.279 0.305-0.453 0.604-0.381 0.678 0.074 0.074 0.367-0.106 0.646-0.409 1.516-1.643 8.031-7.41 9.033-11.82 0.078-0.338 0.131-0.687 0.162-1.043 0.211-0.337 0.904-2.594 1.262-5.617 0.455-3.841-0.205-9.103-0.41-10.143 0.508-0.04-0.254-0.222 0 0 0.311 0.271 0.523 0.56 0.617 0.519 0.094-0.042 0.029-0.39-0.258-0.687 -0.391-0.403-1.066-0.801-2.09-0.468 -2.48 0.804-4.457 3.923-5.68 6.399 -1.061 2.152-2.686 6.122-2.975 8.212 -0.076 0.558 0.049 1.347 0.182 2.182 0.146 0.916 0.297 1.866 0.154 2.429C155.316 100.213 155.176 102.197 154.322 103.243zM159.738 84.488c0.66-1.042 2.209-2.835 3.221-3.235 0.527 0.95 4.158 7.256 1.811 14.179C164.672 90.775 160.219 85.321 159.738 84.488zM152.75 106.229c0.273-0.804 1.076-1.79 1.857-2.746 0.879-1.078 1.047-3.095 1.291-4.048 0.162-0.64 0.006-1.629-0.146-2.584 -0.123-0.77-0.25-1.568-0.182-2.068 0.076-0.547 0.246-1.228 0.475-1.97 0.746 0.543 3.721 3.199 1.039 9.273 -0.203 0.136-0.402 0.254-0.584 0.332 -0.832 0.358-1.16 0.918-1.479 1.46 -0.35 0.6 0.029 2.123-1.055 2.584C153.238 106.775 152.867 106.391 152.75 106.229z"
                fill="#c27b55" stroke-width="none" opacity="1"></path>
        </g>
        <g id="svga-group-faceshape-wrap">
          <g id="svga-group-faceshape-single">
            <path id="SvgjsPath4112"
                  d="M100.002 0.867C66.384 0.92 39.082 28.536 39.134 62.56c0.008 5.403 0.704 10.643 2.002 15.634h0.001c0.012 0.054 11.542 38.591 14.02 51.25 1.382 7.06 9.063 15.656 16.531 20.849 6.967 4.845 11.263 11.574 28.313 11.574s21.346-6.729 28.313-11.574c7.468-5.192 15.149-13.789 16.531-20.849 2.479-12.658 14.009-51.196 14.02-51.25h0.002c1.298-4.992 1.994-10.231 2.002-15.634C160.923 28.536 133.62 0.92 100.002 0.867z"
                  fill="#f0c7b1" stroke-width="none" opacity="1"></path>
            <path id="SvgjsPath4113"
                  d="M146.772 23.096c7.478 10.35 11.917 23.245 11.898 37.227 -0.009 5.403-0.679 10.643-1.93 15.634h-0.002c-0.011 0.054-11.124 38.591-13.512 51.25 -1.335 7.06-8.737 15.656-15.935 20.849 -6.718 4.845-10.854 11.575-27.291 11.575 -16.434 0-20.575-6.73-27.291-11.575 -7.197-5.192-14.602-13.789-15.931-20.849 -2.391-12.658-13.504-51.195-13.515-51.25h0c-1.252-4.992-1.922-10.231-1.931-15.634 -0.021-13.978 4.416-26.868 11.889-37.217 -8.812 10.697-14.112 24.45-14.089 39.453 0.008 5.403 0.704 10.643 2.002 15.634h0.001c0.012 0.054 11.542 38.591 14.02 51.25 1.382 7.06 9.063 15.656 16.531 20.849 6.967 4.845 11.263 11.574 28.313 11.574s21.346-6.729 28.313-11.574c7.468-5.192 15.149-13.789 16.531-20.849 2.479-12.658 14.009-51.196 14.02-51.25h0.002c1.298-4.992 1.994-10.231 2.002-15.634C160.894 47.552 155.589 33.795 146.772 23.096z"
                  fill="#e8b9a0" stroke-width="none" opacity="1"></path>
            <path id="SvgjsPath4114"
                  d="M100.002 0.867C66.384 0.92 39.082 28.536 39.134 62.56c0.008 5.403 0.704 10.643 2.002 15.634h0.001c0.012 0.054 11.542 38.591 14.02 51.25 1.382 7.06 9.063 15.656 16.531 20.849 6.967 4.845 11.263 11.574 28.313 11.574s21.346-6.729 28.313-11.574c7.468-5.192 15.149-13.789 16.531-20.849 2.479-12.658 14.009-51.196 14.02-51.25h0.002c1.298-4.992 1.994-10.231 2.002-15.634C160.923 28.536 133.62 0.92 100.002 0.867z"
                  fill="none" stroke="#c27b55" stroke-width="1.5" opacity="1"></path>
          </g>
        </g>
        <g id="svga-group-mouth-single">
          <path id="SvgjsPath4186"
                d="M100.2 142.947c-2.832 0.144-3.644-2.753-3.644-2.753s3.931 0.565 6.991-0.353C103.548 139.842 102.692 142.822 100.2 142.947z"
                fill="url(#SvgjsLinearGradient4187)" opacity="1"></path>
          <path id="SvgjsPath4190"
                d="M100.488 140.76c-1.984 0.1-3.765-0.077-3.877-0.089 -0.138-0.014-0.238-0.136-0.224-0.272 0.015-0.138 0.143-0.233 0.274-0.224 0.041 0.003 4.096 0.405 6.738-0.337 0.131-0.032 0.271 0.041 0.309 0.174s-0.04 0.27-0.173 0.308C102.601 140.582 101.517 140.708 100.488 140.76z"
                fill="#c27b55" stroke-width="none" opacity="1"></path>
          <path id="SvgjsPath4191"
                d="M82.5 130.299c0 0 12.532 1.486 16.718 1.499 4.553 0.012 19.282-1.499 19.282-1.499 -4.258 3.534-8.943 6.932-19.555 6.999C89.453 137.359 87.021 133.912 82.5 130.299z"
                fill="#ffffff" stroke-width="none" opacity="1"></path>
          <path id="SvgjsPath4192"
                d="M82.5 130.299c0 0 12.532 1.486 16.718 1.499 4.553 0.012 19.282-1.499 19.282-1.499 -4.258 3.534-8.943 6.932-19.555 6.999C89.453 137.359 87.021 133.912 82.5 130.299z"
                fill="none" stroke="#c27b55" stroke-width="0.75" opacity="1"></path>
        </g>
        <g id="svga-group-eyes-left" transform="matrix(0.94999968 0 0 0.94999968 3.6989736778576656 4.074651092858886)">
          <g id="svga-group-eyesback-left">
            <path id="SvgjsPath3532"
                  d="M61.752 82.523c-0.506-2.285 5.191-3.973 12.711-3.051 7.518 0.923 12.738 5.524 12.052 7.844 -0.38 1.286-10.639 3.245-14.253 2.847C68.598 89.758 62.974 88.04 61.752 82.523z"
                  fill="url(#SvgjsRadialGradient3533)" opacity="1"></path>
          </g>
          <g id="svga-group-eyesiriswrapper-left" transform="translate(0.25 0.25)">
            <g id="svga-group-eyesiriscontrol-left">
              <g id="svga-group-eyesiris-left">
                <path id="SvgjsPath3412"
                      d="M79.788 85.588c-0.869 3.192-4.162 5.073-7.361 4.196 -3.197-0.876-5.084-4.178-4.214-7.371 0.869-3.195 4.168-5.076 7.365-4.198C78.772 79.09 80.659 82.392 79.788 85.588z"
                      fill="#000000" stroke="#000000" stroke-width="0.5" opacity="1"></path>
                <path id="SvgjsPath3413"
                      d="M78.855 85.662c-0.849 2.452-3.407 3.881-5.899 3.199 -2.3-0.631-3.752-2.838-3.563-5.171 0.853-0.067 1.787-0.087 2.756-0.04 -0.01 0.033-0.027 0.062-0.036 0.096 -0.306 1.125 0.407 2.305 1.592 2.63 1.189 0.326 2.401-0.326 2.707-1.451 0.039-0.147 0.06-0.294 0.065-0.439C77.29 84.782 78.088 85.165 78.855 85.662z"
                      fill="#0f0f0f" stroke-width="none" opacity="1" stroke="none"></path>
                <path id="SvgjsPath3414"
                      d="M74.813 82.21c-1.203-0.344-2.429 0.342-2.739 1.54 -0.311 1.191 0.412 2.438 1.614 2.783 1.204 0.345 2.43-0.342 2.741-1.534C76.742 83.801 76.016 82.555 74.813 82.21zM75.075 86.442c-0.5 0.156-1.017-0.051-1.154-0.462 -0.133-0.411 0.163-0.867 0.667-1.019 0.503-0.156 1.019 0.051 1.157 0.459C75.881 85.831 75.582 86.287 75.075 86.442z"
                      fill="#000000" stroke-width="none" opacity="0.9"></path>
                <path id="SvgjsPath3415"
                      d="M70.811 87.159c-0.37 0.222-0.922 0.023-1.238-0.447 -0.316-0.466-0.269-1.024 0.102-1.247 0.368-0.219 0.925-0.021 1.239 0.446C71.226 86.378 71.181 86.938 70.811 87.159z"
                      fill="#ffffff" stroke-width="none" opacity="0.6"></path>
                <path id="SvgjsPath3416"
                      d="M78.71 83.74c-0.846 0.507-2.117 0.051-2.837-1.02 -0.72-1.072-0.612-2.352 0.234-2.857 0.844-0.509 2.118-0.053 2.834 1.019C79.66 81.954 79.556 83.232 78.71 83.74z"
                      fill="#ffffff" stroke-width="none" opacity="0.8"></path>
              </g>
            </g>
          </g>
          <g id="svga-group-eyesfront-left">
            <path id="SvgjsPath3554"
                  d="M53.294 83c0.809 10.899 11.637 23.583 20.506 22.236 10.498 0.106 20.864-7.868 20.864-22.305s-5.087-26.528-21.127-26.528C62.037 56.402 53.294 68.563 53.294 83zM61.752 82.523c-0.506-2.285 5.191-3.973 12.711-3.051 7.518 0.923 12.738 5.524 12.052 7.844 -0.38 1.286-10.639 3.245-14.253 2.847C68.598 89.758 62.974 88.04 61.752 82.523z"
                  fill="#f0c7b1" stroke-width="none" opacity="1"></path>
            <path id="SvgjsPath3555"
                  d="M72.262 90.163c3.614 0.398 13.873-1.561 14.253-2.847 0.687-2.32-4.534-6.921-12.052-7.844C68.003 78.68 62.9 79.816 61.907 81.6c0.898-6.4 7.7-11.397 15.987-11.434 8.911-0.037 16.148 5.676 16.172 12.765 0.021 7.088-7.185 12.862-16.095 12.902 -8.913 0.037-16.149-5.676-16.173-12.764 0-0.105 0.016-0.208 0.019-0.313C63.147 88.083 68.651 89.764 72.262 90.163z"
                  fill="url(#SvgjsRadialGradient3556)" opacity="1"></path>
            <path id="SvgjsPath3560"
                  d="M61.752 82.523c-0.506-2.285 5.191-3.973 12.711-3.051 7.518 0.923 12.738 5.524 12.052 7.844 -0.38 1.286-10.639 3.245-14.253 2.847C68.598 89.758 62.974 88.04 61.752 82.523z"
                  fill="url(#SvgjsRadialGradient3561)" opacity="1"></path>
            <path id="SvgjsPath3564"
                  d="M62.148 77.417c4.208-1.978 9.35-2.16 13.838-1.005 2.404 0.561 4.965 1.285 7.063 2.638 1.945 1.135 3.525 2.5 5.002 4.19 -1.342-1.701-2.773-3.118-4.623-4.27 -2.276-1.416-4.769-2.294-7.364-2.916C71.478 74.928 66.342 75.184 62.148 77.417z"
                  fill="#c27b55" stroke-width="none" opacity="1"></path>
            <path id="SvgjsPath3565"
                  d="M62.769 78.02c0.88-0.352 4.065-1 5.456-1.066 1.687-0.082 5.073 0.125 6.735 0.424 3.374 0.608 9.251 2.483 11.678 7.184 0.746 1.445 0.074 2.456-0.123 2.675 0.3-2.426-4.838-6.746-12.052-7.604 -7.52-0.894-13.217 0.743-12.711 2.958 1.222 5.348 6.846 7.013 10.51 7.405 4.099 0.439 11.684-1.539 12.686-1.753 -1.999 1.009-7.524 2.095-9.767 2.303 -0.744 0.07-2.24 0.104-2.986 0.085 -5.949-0.158-10.169-3.175-11.729-7.26C59.464 80.745 60.56 78.902 62.769 78.02z"
                  fill="#000000" stroke-width="none" opacity="1"></path>
          </g>
        </g>
        <g id="svga-group-eyes-right"
           transform="matrix(0.94999968 0 0 0.94999968 6.2811154857470655 4.074626106431879)">
          <g id="svga-group-eyesback-right">
            <path id="SvgjsPath3539"
                  d="M137.849 82.523c0.506-2.285-5.191-3.973-12.711-3.051 -7.518 0.923-12.738 5.524-12.052 7.844 0.38 1.286 10.639 3.245 14.253 2.847C131.003 89.758 136.627 88.04 137.849 82.523z"
                  fill="url(#SvgjsRadialGradient3540)" opacity="1"></path>
          </g>
          <g id="svga-group-eyesiriswrapper-right" transform="translate(-0.25 0.25)">
            <g id="svga-group-eyesiriscontrol-right">
              <g id="svga-group-eyesiris-right">
                <path id="SvgjsPath3417"
                      d="M131.788 85.588c-0.869 3.192-4.162 5.073-7.362 4.196 -3.196-0.876-5.084-4.178-4.214-7.371 0.869-3.195 4.169-5.076 7.365-4.198C130.772 79.09 132.658 82.392 131.788 85.588z"
                      fill="#000000" stroke="#000000" stroke-width="0.5" opacity="1"></path>
                <path id="SvgjsPath3418"
                      d="M130.855 85.662c-0.849 2.452-3.408 3.881-5.899 3.199 -2.3-0.631-3.753-2.838-3.563-5.171 0.854-0.067 1.787-0.087 2.756-0.04 -0.01 0.033-0.027 0.062-0.036 0.096 -0.306 1.125 0.407 2.305 1.593 2.63 1.189 0.326 2.401-0.326 2.707-1.451 0.038-0.147 0.06-0.294 0.065-0.439C129.29 84.782 130.089 85.165 130.855 85.662z"
                      fill="#0f0f0f" stroke-width="none" opacity="1" stroke="none"></path>
                <path id="SvgjsPath3419"
                      d="M126.813 82.21c-1.202-0.344-2.429 0.342-2.738 1.54 -0.312 1.191 0.412 2.438 1.613 2.783 1.204 0.345 2.431-0.342 2.742-1.534C128.741 83.801 128.016 82.555 126.813 82.21zM127.075 86.442c-0.5 0.156-1.018-0.051-1.154-0.462 -0.133-0.411 0.163-0.867 0.667-1.019 0.503-0.156 1.019 0.051 1.157 0.459C127.881 85.831 127.582 86.287 127.075 86.442z"
                      fill="#000000" stroke-width="none" opacity="0.9"></path>
                <path id="SvgjsPath3420"
                      d="M122.812 87.159c-0.37 0.222-0.923 0.023-1.238-0.447 -0.316-0.466-0.27-1.024 0.102-1.247 0.367-0.219 0.926-0.021 1.239 0.446C123.227 86.378 123.181 86.938 122.812 87.159z"
                      fill="#ffffff" stroke-width="none" opacity="0.6"></path>
                <path id="SvgjsPath3421"
                      d="M130.71 83.74c-0.846 0.507-2.116 0.051-2.837-1.02 -0.72-1.072-0.612-2.352 0.234-2.857 0.845-0.509 2.117-0.053 2.834 1.019C131.66 81.954 131.557 83.232 130.71 83.74z"
                      fill="#ffffff" stroke-width="none" opacity="0.8"></path>
              </g>
            </g>
          </g>
          <g id="svga-group-eyesfront-right">
            <path id="SvgjsPath3574"
                  d="M126.063 56.402c-16.04 0-21.127 12.091-21.127 26.528s10.366 22.412 20.864 22.305c8.869 1.347 19.697-11.337 20.506-22.236C146.307 68.563 137.563 56.402 126.063 56.402zM127.339 90.163c-3.614 0.398-13.873-1.561-14.253-2.847 -0.687-2.32 4.534-6.921 12.052-7.844 7.52-0.922 13.217 0.767 12.711 3.051C136.627 88.04 131.003 89.758 127.339 90.163z"
                  fill="#f0c7b1" stroke-width="none" opacity="1"></path>
            <path id="SvgjsPath3575"
                  d="M127.339 90.163c-3.614 0.398-13.873-1.561-14.253-2.847 -0.687-2.32 4.534-6.921 12.052-7.844 6.46-0.792 11.563 0.345 12.556 2.128 -0.898-6.4-7.7-11.397-15.987-11.434 -8.911-0.037-16.148 5.676-16.172 12.765 -0.021 7.088 7.185 12.862 16.095 12.902 8.913 0.037 16.149-5.676 16.173-12.764 0-0.105-0.016-0.208-0.019-0.313C136.453 88.083 130.949 89.764 127.339 90.163z"
                  fill="url(#SvgjsRadialGradient3576)" opacity="1"></path>
            <path id="SvgjsPath3580"
                  d="M137.849 82.523c0.506-2.285-5.191-3.973-12.711-3.051 -7.518 0.923-12.738 5.524-12.052 7.844 0.38 1.286 10.639 3.245 14.253 2.847C131.003 89.758 136.627 88.04 137.849 82.523z"
                  fill="url(#SvgjsRadialGradient3581)" opacity="1"></path>
            <path id="SvgjsPath3584"
                  d="M137.452 77.417c-4.208-1.978-9.35-2.16-13.838-1.005 -2.404 0.561-4.965 1.285-7.063 2.638 -1.945 1.135-3.525 2.5-5.002 4.19 1.342-1.701 2.773-3.118 4.623-4.27 2.276-1.416 4.769-2.294 7.364-2.916C128.123 74.928 133.259 75.184 137.452 77.417z"
                  fill="#c27b55" stroke-width="none" opacity="1"></path>
            <path id="SvgjsPath3585"
                  d="M136.832 78.02c-0.88-0.352-4.065-1-5.456-1.066 -1.687-0.082-5.073 0.125-6.735 0.424 -3.374 0.608-9.251 2.483-11.678 7.184 -0.746 1.445-0.074 2.456 0.123 2.675 -0.3-2.426 4.838-6.746 12.052-7.604 7.52-0.894 13.217 0.743 12.711 2.958 -1.222 5.348-6.846 7.013-10.51 7.405 -4.099 0.439-11.684-1.539-12.686-1.753 1.999 1.009 7.524 2.095 9.767 2.303 0.744 0.07 2.24 0.104 2.986 0.085 5.949-0.158 10.169-3.175 11.729-7.26C140.137 80.745 139.041 78.902 136.832 78.02z"
                  fill="#000000" stroke-width="none" opacity="1"></path>
          </g>
        </g>
        <g id="svga-group-facehighlight-single">
          <path id="SvgjsPath2882"
                d="M141 113.974c0.035 22.622-18.292 40.994-40.938 41.025 -22.642 0.037-41.028-18.273-41.063-40.9 -0.035-22.62 18.292-41.064 40.937-41.1C122.579 72.964 140.967 91.349 141 113.974z"
                fill="url(#SvgjsRadialGradient2883)" opacity="1"></path>
          <path id="SvgjsPath2886"
                d="M137.5 53.999c0 20.711-16.789 37.5-37.499 37.5 -20.711 0-37.501-16.789-37.501-37.5s16.79-37.5 37.501-37.5C120.711 16.499 137.5 33.288 137.5 53.999z"
                fill="url(#SvgjsRadialGradient2887)" opacity="1"></path>
        </g>
        <g id="svga-group-eyebrows-left"
           transform="matrix(0.89999969 0 0 0.89999969 7.2307724992486015 7.001272161640088) rotate(7.500000200000001 72.3075008392334 67.01250417763671) translate(0 -3.0000004000000002)">
          <path id="SvgjsPath3530"
                d="M53.149 74.996c9.743-15.115 36.491 5.148 38.018-1.191 0.299-1.271-0.407-2.015-1.564-2.492C75.982 65.807 57.955 61.18 53.149 74.996z"
                fill="#2a232b" stroke-width="none" opacity="1"></path>
        </g>
        <g id="svga-group-eyebrows-right"
           transform="matrix(0.89999969 0 0 0.89999969 12.769288928545038 7.001272161640088) rotate(-7.5 127.6924934387207 67.01250417763671) translate(0 -3.0000004000000002)">
          <path id="SvgjsPath3531"
                d="M146.851 74.996c-9.743-15.115-36.491 5.148-38.018-1.191 -0.299-1.271 0.407-2.015 1.564-2.492C124.018 65.807 142.045 61.18 146.851 74.996z"
                fill="#2a232b" stroke-width="none" opacity="1"></path>
        </g>
        <g id="svga-group-nose-single">
          <path id="SvgjsPath4100"
                d="M91.115 115.499c-0.878 2.064 5.934 4.292 8.519 4.429 2.8 0.147 10.646-2.9 9.316-4.992 -1.399-2.195-6.643-0.286-8.906-0.286C97.792 114.649 92.291 112.745 91.115 115.499z"
                fill="#e1ac8f" stroke-width="none" opacity="1"></path>
          <path id="SvgjsPath4101"
                d="M101.857 117.058c-0.23-0.759 1.876-1.584 2.657-1.694 1.101-0.16 3.36 0.802 3.158 1.592 -0.184 0.698-2.148-0.533-2.86-0.429C104.078 116.634 102.075 117.769 101.857 117.058zM94.974 116.811c0.968 0 2.404 0.623 2.668 0.074 0.315-0.655-2.139-1.461-2.86-1.372 -0.596 0.07-2.733 1.315-2.439 1.839C92.617 117.833 93.698 116.811 94.974 116.811z"
                fill="#c27b55" stroke-width="none" opacity="1"></path>
          <path id="SvgjsPath4102"
                d="M100.089 111.999c0.607 0 1.742-0.74 1.792-2.23 0.201-6.008-0.956-23.833-1.792-23.77 -0.78 0.059-2.267 17.637-1.948 23.77C98.22 111.271 99.404 111.999 100.089 111.999z"
                fill="#fff5ef" stroke-width="none" opacity="0.2"></path>
        </g>
        <g id="svga-group-beardwrap">
          <g id="svga-group-beard-single">
            <path id="SvgjsPath3018" d="M100,18.13L100,18.13L100,18.13L100,18.13z" fill="#2a232b" stroke-width="none"
                  opacity="1"></path>
          </g>
        </g>
        <g id="svga-group-mustache-single">
          <path id="SvgjsPath3016" d="M100,18.13L100,18.13L100,18.13L100,18.13z" fill="#2a232b" stroke-width="none"
                opacity="1"></path>
        </g>
        <g id="svga-group-hair-front">
          <path id="SvgjsPath4084"
                d="M158.43 41.325C140-4.765 100 0.405 100 0.405s-40-5.169-58.43 40.92c-9.245 23.12 2.158 50.324 2.158 50.324h5.826c-5.094-21.752 0.796-17.662 1.176-21.722 0.118-1.255-0.3-3.367-0.421-4.622 -0.592-6.112 1.982-18.029 5.245-23.173 1.603-2.526 5.369-6.659 8.174-7.699 9.97-3.694 20.044 0.715 22.854 1.421 4.461 1.12 22.373 1.12 26.836 0 3.343-0.839 13.182-4.905 22.854-1.321 2.806 1.04 6.871 4.972 8.474 7.499 3.263 5.144 5.537 16.16 4.945 22.272 -0.121 1.255-0.539 4.367-0.422 5.623 0.107 1.147 2.617 3.689 2.898 4.807 1.16 4.612-1.722 16.915-1.722 16.915h5.825C156.271 91.649 167.676 64.445 158.43 41.325z"
                fill="#2a232b" stroke-width="none" opacity="1"></path>
          <path id="SvgjsPath4085"
                d="M154.938 31.163C136.178-3.114 101.979-0.631 100-0.455c-1.979-0.176-36.177-2.659-54.938 31.618C30.57 57.641 41.57 88.137 42.907 91.612c0.076 0.197 1.576 0.038 1.576 0.038 -0.006-0.015-0.104-0.392-0.166-0.55 -1.209-3.12-12.189-33.18 2.061-59.216C65.111-2.342 99.595 1.007 99.94 1.046L100 0.504l0.06 0.542c0.345-0.039 34.829-3.388 53.563 30.837 14.563 26.61 2.773 57.423 1.996 59.383 -0.021 0.055-0.107 0.375-0.111 0.383 0 0 1.506 0.169 1.575-0.011C158.374 88.294 169.467 57.709 154.938 31.163z"
                fill="#000000" stroke-width="none" opacity="1"></path>
        </g>
        <g id="svga-group-glasses-single"
           transform="matrix(0.84999948 0 0 0.84999948 15.000051427793423 12.918044622182151)">
          <path id="SvgjsPath3586"
                d="M143.62 100.1c-2.36 2.2-6.23 3.04-13.56 3.04 -9.78 0-16.18-1.09-20.41-9.51 -3.29-6.54-4.62-13.56-3.02-15.98 2.21-3.34 8.57-5.61 15.67-6.28C134.63 77.23 143.29 88.98 143.62 100.1zM72.01 71.17c-7.64 0.21-15.09 2.35-18.27 7.05 -2.18 3.21-1.69 12.55-0.22 16.94 2 5.99 5.07 7.98 16.42 7.98 9.78 0 16.18-1.09 20.41-9.51 0.42-0.84 0.81-1.69 1.17-2.54C88.29 82.95 81.16 75.43 72.01 71.17z"
                fill="#ffffff" stroke-width="none" opacity="0.2"></path>
          <path id="SvgjsPath3587"
                d="M146.48 95.17c-0.71 2.12-1.56 3.73-2.86 4.94 -0.33-11.12-8.99-22.87-21.33-28.74 9.37-0.89 19.99 0.99 23.97 6.86C148.44 81.44 147.95 90.77 146.48 95.17zM93.38 77.65c-2.79-4.23-12.22-6.73-21.37-6.47 9.16 4.25 16.28 11.77 19.52 19.92C93.94 85.36 94.77 79.76 93.38 77.65z"
                fill="#ffffff" stroke-width="none" opacity="0.4"></path>
          <path id="SvgjsPath3588"
                d="M151.79 73.61c-10.18-5.46-36.14-7.01-45.5 0.15 -0.8 0.47-4.23-0.53-6.29-0.53 -1.95 0-5.42 1.05-6.29 0.53 -9.36-7.16-35.32-5.61-45.5-0.15 -1.46 0.79-1.62 4.51-0.35 5.08 0.91 0.41 1.51 0.98 1.46 1.98C49 86.29 50.55 93.59 51.23 95.6c0.87 2.59 2.44 7.41 9.29 8.6 5.83 1.01 16.43 1.48 21.94-0.17 9.99-2.98 14.24-18.04 14.42-23.17l0.01 0.02c0.4-1.8 5.82-1.8 6.23 0l0.01-0.02c0.17 5.13 4.43 20.19 14.42 23.17 5.51 1.65 16.11 1.18 21.94 0.17 6.85-1.19 8.42-6.01 9.29-8.6 0.68-2.02 2.23-9.31 1.92-14.93 -0.05-1 0.56-1.57 1.46-1.98C153.41 78.12 153.25 74.4 151.79 73.61zM81.41 101.36c-5.06 1.51-14.32 1.61-19.71 0.67 -4.54-0.79-6.44-3.26-7.7-7.03 -1.48-4.4-1.87-13.51 0.16-16.5 6.76-9.98 33.87-8.05 38.8-0.58C95.16 81.27 90.89 98.53 81.41 101.36zM146 95.01c-1.26 3.77-3.17 6.24-7.7 7.03 -5.39 0.94-14.65 0.84-19.71-0.67 -9.48-2.83-13.75-20.09-11.55-23.44 4.93-7.47 32.04-9.4 38.8 0.58C147.87 81.49 147.48 90.61 146 95.01z"
                fill="#26120b" stroke-width="none" opacity="1"></path>
          <path id="SvgjsPath3589"
                d="M118.58 101.32c2.79 0.83 6.86 1.24 10.85 1.27 -12.54 1.22-15.39-3.4-17.12-5.16 -3.52-3.59-5.69-8.95-5.85-16.65C106.49 86.86 110.76 98.99 118.58 101.32zM93.69 73.72c-9.36-7.16-35.32-5.62-45.5-0.15C71.43 67.05 84.93 70.42 93.69 73.72zM61.68 102c-4.54-0.79-6.44-3.26-7.7-7.03 -1.32-3.93-1.77-11.62-0.4-15.35 -1.83 4.22-1.12 12.39 0.26 16.5 1.6 4.8 4.54 7.18 17.34 6.46C67.71 102.65 64.25 102.44 61.68 102zM152.97 76.3c-0.04-1.13-0.45-2.32-1.2-2.73 -9.98-5.36-35.14-6.94-44.93-0.25C120 68.05 138.97 67.31 152.97 76.3z"
                fill="#351d15" stroke-width="none" opacity="1"></path>
        </g>
      </g>
    </g>
  </g>
  <defs id="SvgjsDefs1001">
    <radialGradient id="SvgjsRadialGradient2883" cx="100" cy="114" r="41" gradientUnits="userSpaceOnUse"
                    class="svga-on-canvas-facehighlight-gradient-single-0">
      <stop id="SvgjsStop2884" stop-opacity="0.5" stop-color="#ffe4d6" offset="0"></stop>
      <stop id="SvgjsStop2885" stop-opacity="0" stop-color="#f0c7b1" offset="0.9"></stop>
    </radialGradient>
    <radialGradient id="SvgjsRadialGradient2887" cx="100" cy="54" r="37" gradientUnits="userSpaceOnUse"
                    class="svga-on-canvas-facehighlight-gradient-single-1">
      <stop id="SvgjsStop2888" stop-opacity="0.5" stop-color="#ffe4d6" offset="0"></stop>
      <stop id="SvgjsStop2889" stop-opacity="0" stop-color="#f0c7b1" offset="0.9"></stop>
    </radialGradient>
    <radialGradient id="SvgjsRadialGradient3324" cx="-568.659" cy="-521.042" r="59.751"
                    gradientTransform="matrix(0.096 -0.0248 0.0245 0.0961 141.2814 119.9893)"
                    gradientUnits="userSpaceOnUse" class="svga-on-canvas-eyesiris-gradient-left-1">
      <stop id="SvgjsStop3325" stop-opacity="1" stop-color="#ffffff" offset="0"></stop>
      <stop id="SvgjsStop3326" stop-opacity="0" stop-color="#ffffff" offset="1"></stop>
    </radialGradient>
    <radialGradient id="SvgjsRadialGradient3328" cx="-582.838" cy="-519.099" r="59.745"
                    gradientTransform="matrix(0.0991 8.856319e-004 -0.0011 0.0991 131.1134 135.9855)"
                    gradientUnits="userSpaceOnUse" class="svga-on-canvas-eyesiris-gradient-left-2">
      <stop id="SvgjsStop3329" stop-opacity="1" stop-color="#ffffff" offset="0"></stop>
      <stop id="SvgjsStop3330" stop-opacity="0" stop-color="#ffffff" offset="1"></stop>
    </radialGradient>
    <linearGradient id="SvgjsLinearGradient3334" x1="122.67" y1="88.268" x2="123.606" y2="87.152"
                    gradientTransform="matrix(1 0 0 1 -52 0)" gradientUnits="userSpaceOnUse"
                    class="svga-on-canvas-eyesiris-gradient-left-5">
      <stop id="SvgjsStop3335" stop-opacity="1" stop-color="#ffffff" offset="0"></stop>
      <stop id="SvgjsStop3336" stop-opacity="0" stop-color="#ffffff" offset="1"></stop>
    </linearGradient>
    <linearGradient id="SvgjsLinearGradient3338" x1="127.212" y1="82.296" x2="126.463" y2="83.189"
                    gradientTransform="matrix(1 0 0 1 -52 0)" gradientUnits="userSpaceOnUse"
                    class="svga-on-canvas-eyesiris-gradient-left-6">
      <stop id="SvgjsStop3339" stop-opacity="1" stop-color="#ffffff" offset="0"></stop>
      <stop id="SvgjsStop3340" stop-opacity="0" stop-color="#ffffff" offset="1"></stop>
    </linearGradient>
    <linearGradient id="SvgjsLinearGradient3342" x1="129.636" y1="79.822" x2="127.91" y2="81.879"
                    gradientTransform="matrix(1 0 0 1 -52 0)" gradientUnits="userSpaceOnUse"
                    class="svga-on-canvas-eyesiris-gradient-left-7">
      <stop id="SvgjsStop3343" stop-opacity="1" stop-color="#ffffff" offset="0"></stop>
      <stop id="SvgjsStop3344" stop-opacity="0" stop-color="#ffffff" offset="1"></stop>
    </linearGradient>
    <radialGradient id="SvgjsRadialGradient3347" cx="-568.654" cy="-521.042" r="59.752"
                    gradientTransform="matrix(0.096 -0.0248 0.0245 0.0961 193.2804 119.9894)"
                    gradientUnits="userSpaceOnUse" class="svga-on-canvas-eyesiris-gradient-right-1">
      <stop id="SvgjsStop3348" stop-opacity="1" stop-color="#ffffff" offset="0"></stop>
      <stop id="SvgjsStop3349" stop-opacity="0" stop-color="#ffffff" offset="1"></stop>
    </radialGradient>
    <radialGradient id="SvgjsRadialGradient3351" cx="-582.833" cy="-519.102" r="59.747"
                    gradientTransform="matrix(0.0991 8.856319e-004 -0.0011 0.0991 183.1126 135.9856)"
                    gradientUnits="userSpaceOnUse" class="svga-on-canvas-eyesiris-gradient-right-2">
      <stop id="SvgjsStop3352" stop-opacity="1" stop-color="#ffffff" offset="0"></stop>
      <stop id="SvgjsStop3353" stop-opacity="0" stop-color="#ffffff" offset="1"></stop>
    </radialGradient>
    <linearGradient id="SvgjsLinearGradient3357" x1="122.67" y1="88.268" x2="123.606" y2="87.152"
                    gradientUnits="userSpaceOnUse" class="svga-on-canvas-eyesiris-gradient-right-5">
      <stop id="SvgjsStop3358" stop-opacity="1" stop-color="#ffffff" offset="0"></stop>
      <stop id="SvgjsStop3359" stop-opacity="0" stop-color="#ffffff" offset="1"></stop>
    </linearGradient>
    <linearGradient id="SvgjsLinearGradient3361" x1="127.212" y1="82.296" x2="126.463" y2="83.189"
                    gradientUnits="userSpaceOnUse" class="svga-on-canvas-eyesiris-gradient-right-6">
      <stop id="SvgjsStop3362" stop-opacity="1" stop-color="#ffffff" offset="0"></stop>
      <stop id="SvgjsStop3363" stop-opacity="0" stop-color="#ffffff" offset="1"></stop>
    </linearGradient>
    <linearGradient id="SvgjsLinearGradient3365" x1="129.636" y1="79.822" x2="127.91" y2="81.879"
                    gradientUnits="userSpaceOnUse" class="svga-on-canvas-eyesiris-gradient-right-7">
      <stop id="SvgjsStop3366" stop-opacity="1" stop-color="#ffffff" offset="0"></stop>
      <stop id="SvgjsStop3367" stop-opacity="0" stop-color="#ffffff" offset="1"></stop>
    </linearGradient>
    <radialGradient id="SvgjsRadialGradient3533" cx="129.041" cy="83.945" r="15.117"
                    gradientTransform="matrix(-0.9945 0.1042 0.1042 0.9945 192.8281 -12.4633)"
                    gradientUnits="userSpaceOnUse" class="svga-on-canvas-eyesback-gradient-left-0">
      <stop id="SvgjsStop3534" stop-opacity="1" stop-color="#ffffff" offset="0"></stop>
      <stop id="SvgjsStop3535" stop-opacity="1" stop-color="#fcfdfd" offset="0.315"></stop>
      <stop id="SvgjsStop3536" stop-opacity="1" stop-color="#f4f7f8" offset="0.504"></stop>
      <stop id="SvgjsStop3537" stop-opacity="1" stop-color="#e5ecef" offset="0.66"></stop>
      <stop id="SvgjsStop3538" stop-opacity="1" stop-color="#d8e2e7" offset="0.76"></stop>
    </radialGradient>
    <radialGradient id="SvgjsRadialGradient3540" cx="128.643" cy="83.986" r="15.116"
                    gradientTransform="matrix(0.9945 0.1042 -0.1042 0.9945 7.1738 -12.4633)"
                    gradientUnits="userSpaceOnUse" class="svga-on-canvas-eyesback-gradient-right-0">
      <stop id="SvgjsStop3541" stop-opacity="1" stop-color="#ffffff" offset="0"></stop>
      <stop id="SvgjsStop3542" stop-opacity="1" stop-color="#fcfdfd" offset="0.316"></stop>
      <stop id="SvgjsStop3543" stop-opacity="1" stop-color="#f4f7f8" offset="0.505"></stop>
      <stop id="SvgjsStop3544" stop-opacity="1" stop-color="#e5ecef" offset="0.661"></stop>
      <stop id="SvgjsStop3545" stop-opacity="1" stop-color="#d8e2e7" offset="0.76"></stop>
    </radialGradient>
    <radialGradient id="SvgjsRadialGradient3547" cx="129.041" cy="83.945" r="15.117"
                    gradientTransform="matrix(-0.9945 0.1042 0.1042 0.9945 192.8281 -12.4633)"
                    gradientUnits="userSpaceOnUse" class="svga-on-canvas-eyesfront-gradient-left-0">
      <stop id="SvgjsStop3548" stop-opacity="1" stop-color="#ffffff" offset="0"></stop>
      <stop id="SvgjsStop3549" stop-opacity="1" stop-color="#fcfdfd" offset="0.316"></stop>
      <stop id="SvgjsStop3550" stop-opacity="1" stop-color="#f4f7f8" offset="0.505"></stop>
      <stop id="SvgjsStop3551" stop-opacity="1" stop-color="#e5ecef" offset="0.661"></stop>
      <stop id="SvgjsStop3552" stop-opacity="1" stop-color="#d8e2e7" offset="0.76"></stop>
    </radialGradient>
    <radialGradient id="SvgjsRadialGradient3556" cx="121.986" cy="82.496" fx="133.239" fy="82.527" r="16.003"
                    gradientTransform="matrix(0.9998 0.0208 0.0166 -0.7998 -45.3195 145.9395)"
                    gradientUnits="userSpaceOnUse" class="svga-on-canvas-eyesfront-gradient-left-3">
      <stop id="SvgjsStop3557" stop-opacity="1" stop-color="#e1ac8f" offset="0"></stop>
      <stop id="SvgjsStop3558" stop-opacity="0.3" stop-color="#e1ac8f" offset="0.7"></stop>
      <stop id="SvgjsStop3559" stop-opacity="0" stop-color="#f0c7b1" offset="1"></stop>
    </radialGradient>
    <radialGradient id="SvgjsRadialGradient3561" cx="68.931" cy="105.995" r="29.524"
                    gradientTransform="matrix(1.0336 0 0 1.0336 -1.6796 1.3127)" gradientUnits="userSpaceOnUse"
                    class="svga-on-canvas-eyesfront-gradient-left-4">
      <stop id="SvgjsStop3562" stop-opacity="0" stop-color="#000000" offset="0.95"></stop>
      <stop id="SvgjsStop3563" stop-opacity="0.2" stop-color="#000000" offset="1"></stop>
    </radialGradient>
    <radialGradient id="SvgjsRadialGradient3567" cx="128.643" cy="83.986" r="15.116"
                    gradientTransform="matrix(0.9945 0.1042 -0.1042 0.9945 7.1738 -12.4633)"
                    gradientUnits="userSpaceOnUse" class="svga-on-canvas-eyesfront-gradient-right-0">
      <stop id="SvgjsStop3568" stop-opacity="1" stop-color="#ffffff" offset="0"></stop>
      <stop id="SvgjsStop3569" stop-opacity="1" stop-color="#fcfdfd" offset="0.316"></stop>
      <stop id="SvgjsStop3570" stop-opacity="1" stop-color="#f4f7f8" offset="0.505"></stop>
      <stop id="SvgjsStop3571" stop-opacity="1" stop-color="#e5ecef" offset="0.661"></stop>
      <stop id="SvgjsStop3572" stop-opacity="1" stop-color="#d8e2e7" offset="0.76"></stop>
    </radialGradient>
    <radialGradient id="SvgjsRadialGradient3576" cx="121.587" cy="82.496" fx="132.839" fy="82.527" r="16.003"
                    gradientTransform="matrix(-0.9998 0.0208 -0.0166 -0.7998 244.5208 145.9478)"
                    gradientUnits="userSpaceOnUse" class="svga-on-canvas-eyesfront-gradient-right-3">
      <stop id="SvgjsStop3577" stop-opacity="1" stop-color="#e1ac8f" offset="0"></stop>
      <stop id="SvgjsStop3578" stop-opacity="0.3" stop-color="#e1ac8f" offset="0.7"></stop>
      <stop id="SvgjsStop3579" stop-opacity="0" stop-color="#f0c7b1" offset="1"></stop>
    </radialGradient>
    <radialGradient id="SvgjsRadialGradient3581" cx="69.316" cy="105.995" r="29.524"
                    gradientTransform="matrix(-1.0336 0 0 1.0336 201.6796 1.3127)" gradientUnits="userSpaceOnUse"
                    class="svga-on-canvas-eyesfront-gradient-right-4">
      <stop id="SvgjsStop3582" stop-opacity="0" stop-color="#000000" offset="0.95"></stop>
      <stop id="SvgjsStop3583" stop-opacity="0.2" stop-color="#000000" offset="1"></stop>
    </radialGradient>
    <linearGradient id="SvgjsLinearGradient4116" x1="100" y1="172" x2="100" y2="130" gradientUnits="userSpaceOnUse"
                    class="svga-on-canvas-chinshadow-gradient-single-0">
      <stop id="SvgjsStop4117" stop-opacity="0.8" stop-color="#e1ac8f" offset="0"></stop>
      <stop id="SvgjsStop4118" stop-opacity="1" stop-color="#c27b55" offset="0.7"></stop>
    </linearGradient>
    <linearGradient id="SvgjsLinearGradient4187" x1="100" y1="142" x2="100" y2="139" gradientUnits="userSpaceOnUse"
                    class="svga-on-canvas-mouth-gradient-single-0">
      <stop id="SvgjsStop4188" stop-opacity="1" stop-color="#e8b9a0" offset="0.1"></stop>
      <stop id="SvgjsStop4189" stop-opacity="1" stop-color="#e1ac8f" offset="1"></stop>
    </linearGradient>
  </defs>
</svg>
